<svg width="353" height="304" fill="none" xmlns="http://www.w3.org/2000/svg"><path d="M180.29 759s153.13-32.43 159.437-119.074c6.307-86.643-231.598-17.186-136.358-198 95.241-180.813 181.318-185.289 136.358-298C294.767 31.216 174.04-27.954 33.79 16.801c-140.251 44.753-153.453 332.125-153.453 332.125" stroke="#D0D5F6" stroke-width="2"/><path d="M138.3 759s120.125-28.481 125.072-104.575c4.948-76.093-181.679-15.094-106.966-173.89 74.712-158.797 142.235-162.727 106.966-261.714-35.269-98.986-129.974-150.95-239.995-111.646C-86.643 146.479-97 398.859-97 398.859" stroke="#D0D5F6" stroke-width="2"/><path d="M102.065 761s90.905-24.841 94.649-91.208c3.744-66.367-137.487-13.165-80.948-151.664s107.638-141.927 80.948-228.261c-26.69-86.335-98.359-131.656-181.618-97.376S-76 446.892-76 446.892" stroke="#D0D5F6" stroke-width="2"/></svg>